#!OML:ASF E:/inclinewalkrobotboard/Project1/Captureday1/Session1/subject1.ASF
:FULLY-SPECIFIED
:DEGREES
213
root 0 0 0 0.4609170387663406 -3.162039025837886 1.2625151254728533
lowerback 11.504948586201571 0.6304047955875334 -0.5377301858350142
upperback -2.7790286839189133 0.7953671402649942 0.016680930553049977
thorax -9.450925709923492 0.35504231137860376 0.20181461889629826
lowerneck -9.798718127034288 0.2627271797641 2.3759378683014507
upperneck 18.55278089629235 1.1326568067166365 -5.5055374847944965
head 7.447161945897955 0.27354803029683117 -2.0903063249946796
rclavicle 2.127132954377306E-16 -7.381058418620817E-16
rhumerus 2.5818855062477795 3.43833846085149 -59.565228025032674
rradius 56.196343175596695
rwrist 17.53992892870077
rhand -28.400443571969262 -27.545093185703227
rfingers 7.125019999999986
rthumb -1.7679921737268973 -57.784003007453705
lclavicle -8.353293137420661E-16 -1.7489878841848612E-16
lhumerus 3.074795838716689 -9.60003981885755 59.035628684933
lradius 55.774735375944346
lwrist -11.272702664974902
lhand -38.86161154947021 -35.99253518344957
lfingers 7.125019999999983
lthumb -11.8026833745883 -6.300300767099223
rfemur -25.387945844020003 1.7661777461924237 19.974946342410256
rtibia 47.834406989482986
rfoot -7.285725533552657 -9.872176243866793
rtoes -1.4442749401199109
lfemur -14.899807314746914 -0.29733296301820733 -17.162878367099086
ltibia 42.63422775421119
lfoot -6.0009193433602235 -4.792027452936635
ltoes -6.251542466013452
214
root 0 0 0 0.4608876425991415 -3.165348829116592 1.2560945158398276
lowerback 11.504338538563617 0.6326130427078205 -0.5316837982398946
upperback -2.778462877907303 0.7991547554180444 0.01719226839507204
thorax -9.449841789060105 0.3567468453834855 0.19808224136290153
lowerneck -9.800746479976223 0.2618522656102287 2.3753144602964302
upperneck 18.551642978124615 1.130974732144507 -5.503738167804221
head 7.447009245512459 0.27281728598153765 -2.0898027077861516
rclavicle 2.1282505015528012E-16 -7.367788751748348E-16
rhumerus 2.581469065977636 3.438286861375488 -59.56570867944569
rradius 56.1957604170038
rwrist 17.539342316518418
rhand -28.400280200871183 -27.544049996385144
rfingers 7.125019999999986
rthumb -1.7676724821301812 -57.78251170044497
lclavicle -8.337011284153612E-16 -1.7335094918425084E-16
lhumerus 3.0773464235196677 -9.600895581581742 59.034120194527915
lradius 55.776452958907555
lwrist -11.273906804702925
lhand -38.86239817771788 -35.996159203150235
lfingers 7.125019999999983
lthumb -11.803335630038326 -6.304684811282861
rfemur -25.277028603652766 1.7967505563986719 20.03052994032091
rtibia 47.69821721713781
rfoot -7.339354832239846 -9.859316969926402
rtoes -1.4405631399632595
lfemur -14.876415024320444 -0.3310661760895304 -17.191613714687556
ltibia 42.397216759176686
lfoot -6.083387864613557 -4.7082986415881525
ltoes -6.2113547354057435
215
root 0 0 0 0.4606078206530455 -3.166474407726372 1.2548580568566707
lowerback 11.504509180906814 0.6332650896562015 -0.5301013168176806
upperback -2.7783823077082777 0.8001909643850075 0.01716508839883235
thorax -9.449839268578408 0.35720645826212677 0.19711166429594795
lowerneck -9.800808598018808 0.26151034372295845 2.3752939159909077
upperneck 18.552474512759837 1.1306527819569059 -5.503778884885479
head 7.447322130717206 0.27263634609844356 -2.089870155351101
rclavicle 2.1252142495244686E-16 -7.381801700561574E-16
rhumerus 2.581638874805236 3.4383392709427003 -59.56558337879744
rradius 56.19609759514958
rwrist 17.53963139136732
rhand -28.400366725441895 -27.544567778326684
rfingers 7.125019999999986
rthumb -1.7678641783554907 -57.78341921051865
lclavicle -8.352915119630061E-16 -1.7497972008308745E-16
lhumerus 3.073600113556328 -9.59978370791945 59.03647779049027
lradius 55.77391962545966
lwrist -11.272051879492606
lhand -38.86123055193579 -35.99036771905958
lfingers 7.125019999999983
lthumb -11.80231519737466 -6.298001584778596
rfemur -25.284307953224083 1.7938078791926468 20.02644254416885
rtibia 47.71635591423194
rfoot -7.330931089856145 -9.858306722864118
rtoes -1.4370476198706568
lfemur -14.87333256665419 -0.32189571517287663 -17.187559210788528
ltibia 42.45994934019929
lfoot -6.06250982951838 -4.733226786066791
ltoes -6.223819261374384
216
root 0 0 0 0.46064009214030266 -3.165498420155572 1.2565974432051734
lowerback 11.504627763836032 0.632630938304789 -0.5318119415491137
upperback -2.778513394419971 0.7991134989096094 0.017049231892298344
thorax -9.450083750376418 0.3567224740828126 0.19817048351967304
lowerneck -9.800334059658809 0.2617593660606867 2.375428380991712
upperneck 18.552634916869906 1.131087692800329 -5.504183159289576
head 7.447322264924679 0.27283206837641294 -2.0899737500053943
rclavicle 2.1266357292530857E-16 -7.381253533871734E-16
rhumerus 2.5817415048076313 3.4383519172098502 -59.5654131042581
rradius 56.196227358005956
rwrist 17.539742285813375
rhand -28.400401185345856 -27.544801367944682
rfingers 7.125019999999986
rthumb -1.76792037432942 -57.783675582507016
lclavicle -8.353115987792964E-16 -1.7503576843846162E-16
lhumerus 3.07264980997293 -9.599473086652033 59.03713122763651
lradius 55.77309444931526
lwrist -11.27165335433398
lhand -38.86089576745144 -35.98889932099578
lfingers 7.125019999999983
lthumb -11.802002487138155 -6.29651699758363
rfemur -25.31302159642981 1.7857498535745049 20.012052481195852
rtibia 47.75344630500795
rfoot -7.315434935426809 -9.861150387017918
rtoes -1.4367612371432246
lfemur -14.874323473907356 -0.3150902416494602 -17.183175221733983
ltibia 42.50792370813748
lfoot -6.0458013499032015 -4.751161381723219
ltoes -6.232658218345739
